<svg width="29" height="24" viewBox="0 0 29 24" fill="none" xmlns="http://www.w3.org/2000/svg">
<rect x="0.5" width="28" height="24" rx="8" fill="#0F60FF"/>
<path d="M15.9242 4H22.5V8.44379H21.2678C19.1272 8.44379 17.6659 8.1107 16.8839 7.44453C16.2441 6.89591 15.9242 6.01029 15.9242 4.78766V4ZM7.5 10.3744C7.5 6.85391 10.3539 4 13.8744 4V10.4423H15.6256C17.2824 10.4423 18.6256 11.7855 18.6256 13.4423V13.5107H13.8744V13.6021C13.8744 17.1226 11.0205 19.9765 7.5 19.9765V10.3744ZM15.9123 18.8597C15.9123 17.2373 16.8602 16.1362 18.7559 15.5562C19.4826 15.3368 20.4186 15.227 21.564 15.227H22.5V20H15.9123V18.8597Z" fill="white"/>
</svg>
