<svg width="20" height="20" viewBox="0 0 20 20" fill="none" xmlns="http://www.w3.org/2000/svg">
<path d="M17.2 0.5H2.76245C2.21544 0.5 1.69084 0.693721 1.30404 1.03855C0.91725 1.38337 0.699951 1.85105 0.699951 2.33871V6.32258C0.699951 6.40386 0.736168 6.4818 0.800633 6.53928C0.865099 6.59675 0.952533 6.62903 1.0437 6.62903H4.13745V19.1935C4.13745 19.2748 4.17367 19.3528 4.23813 19.4102C4.3026 19.4677 4.39003 19.5 4.4812 19.5H18.9187C19.0099 19.5 19.0973 19.4677 19.1618 19.4102C19.2262 19.3528 19.2625 19.2748 19.2625 19.1935V2.33871C19.2625 1.85105 19.0452 1.38337 18.6584 1.03855C18.2716 0.693721 17.747 0.5 17.2 0.5ZM4.13745 6.01613H1.38745V2.33871C1.38745 2.01361 1.53232 1.70182 1.79018 1.47193C2.04804 1.24205 2.39778 1.1129 2.76245 1.1129C3.12712 1.1129 3.47686 1.24205 3.73472 1.47193C3.99259 1.70182 4.13745 2.01361 4.13745 2.33871V6.01613ZM17.5437 7.24194C17.5677 7.23903 17.5919 7.23903 17.6159 7.24194C17.6361 7.2446 17.6557 7.24976 17.6743 7.25726C17.6911 7.26535 17.7072 7.27457 17.7225 7.28484C17.7434 7.29744 17.763 7.31181 17.7809 7.32774C17.7809 7.32774 17.7809 7.35226 17.805 7.36452C17.8197 7.38221 17.8313 7.40185 17.8393 7.42274C17.8429 7.44305 17.8429 7.46373 17.8393 7.48403C17.8596 7.50271 17.8759 7.52451 17.8875 7.54839V8.77419C17.8875 8.85547 17.8512 8.93342 17.7868 8.99089C17.7223 9.04836 17.6349 9.08065 17.5437 9.08065C17.4525 9.08065 17.3651 9.04836 17.3006 8.99089C17.2362 8.93342 17.2 8.85547 17.2 8.77419V8.21339L15.3609 9.62C15.2986 9.66747 15.2194 9.69355 15.1375 9.69355H14.3537L13.7625 11.3239C13.7425 11.3769 13.7067 11.4241 13.6588 11.4603C13.6109 11.4965 13.5529 11.5203 13.4909 11.5292H13.4187C13.3653 11.5292 13.3127 11.5181 13.265 11.4968C13.2172 11.4756 13.1757 11.4447 13.1437 11.4066L11.3734 9.30129L10.5587 10.3892C10.5086 10.4575 10.43 10.5052 10.3404 10.5218C10.2508 10.5385 10.1575 10.5228 10.0809 10.4781C10.0043 10.4334 9.95078 10.3634 9.93209 10.2835C9.91339 10.2036 9.93106 10.1204 9.9812 10.0521L11.064 8.60565C11.0944 8.5649 11.1353 8.53124 11.1833 8.50746C11.2312 8.48369 11.2849 8.4705 11.3397 8.469C11.3946 8.4675 11.449 8.47774 11.4986 8.49884C11.5481 8.51995 11.5912 8.55132 11.6243 8.59032L13.2915 10.5731L13.7728 9.28903C13.7962 9.22716 13.8412 9.17357 13.9011 9.13609C13.9611 9.0986 14.033 9.07918 14.1062 9.08065H15.0103L16.6156 7.85484H16.1687C16.0775 7.85484 15.9901 7.82255 15.9256 7.76508C15.8612 7.70761 15.825 7.62966 15.825 7.54839C15.825 7.46711 15.8612 7.38916 15.9256 7.33169C15.9901 7.27422 16.0775 7.24194 16.1687 7.24194H17.5437ZM9.2937 2.33871H16.8562C16.9474 2.33871 17.0348 2.371 17.0993 2.42847C17.1637 2.48594 17.2 2.56389 17.2 2.64516C17.2 2.72644 17.1637 2.80438 17.0993 2.86186C17.0348 2.91933 16.9474 2.95161 16.8562 2.95161H9.2937C9.20253 2.95161 9.1151 2.91933 9.05063 2.86186C8.98617 2.80438 8.94995 2.72644 8.94995 2.64516C8.94995 2.56389 8.98617 2.48594 9.05063 2.42847C9.1151 2.371 9.20253 2.33871 9.2937 2.33871ZM9.2937 3.87097H13.4187C13.5099 3.87097 13.5973 3.90325 13.6618 3.96073C13.7262 4.0182 13.7625 4.09614 13.7625 4.17742C13.7625 4.2587 13.7262 4.33664 13.6618 4.39411C13.5973 4.45158 13.5099 4.48387 13.4187 4.48387H9.2937C9.20253 4.48387 9.1151 4.45158 9.05063 4.39411C8.98617 4.33664 8.94995 4.2587 8.94995 4.17742C8.94995 4.09614 8.98617 4.0182 9.05063 3.96073C9.1151 3.90325 9.20253 3.87097 9.2937 3.87097ZM9.2937 5.40323H15.4812C15.5724 5.40323 15.6598 5.43551 15.7243 5.49298C15.7887 5.55045 15.825 5.6284 15.825 5.70968C15.825 5.79095 15.7887 5.8689 15.7243 5.92637C15.6598 5.98384 15.5724 6.01613 15.4812 6.01613H9.2937C9.20253 6.01613 9.1151 5.98384 9.05063 5.92637C8.98617 5.8689 8.94995 5.79095 8.94995 5.70968C8.94995 5.6284 8.98617 5.55045 9.05063 5.49298C9.1151 5.43551 9.20253 5.40323 9.2937 5.40323ZM9.52058 10.6742C9.54563 10.6406 9.57786 10.6117 9.61543 10.5892C9.653 10.5667 9.69518 10.551 9.73955 10.5431C9.78392 10.5351 9.82961 10.535 9.87402 10.5428C9.91844 10.5506 9.9607 10.5661 9.99839 10.5884C10.0361 10.6107 10.0685 10.6395 10.0937 10.673C10.1189 10.7064 10.1365 10.744 10.1455 10.7836C10.1544 10.8232 10.1545 10.8639 10.1458 10.9035C10.1371 10.9431 10.1197 10.9808 10.0946 11.0144L8.89151 12.6202C8.86601 12.6552 8.83273 12.6853 8.79371 12.7085C8.7547 12.7317 8.71077 12.7475 8.66464 12.755C8.57128 12.7669 8.47641 12.746 8.39995 12.6968L7.2312 11.9153L6.06245 12.6968C6.00295 12.7366 5.93058 12.7581 5.8562 12.7581C5.80284 12.7581 5.7502 12.747 5.70247 12.7257C5.65474 12.7044 5.61322 12.6735 5.5812 12.6355C5.55412 12.6033 5.53441 12.5667 5.52321 12.5277C5.512 12.4887 5.50952 12.4481 5.51591 12.4083C5.52229 12.3684 5.53741 12.3301 5.56041 12.2955C5.58341 12.2608 5.61384 12.2306 5.64995 12.2065L7.02495 11.2871C7.08445 11.2473 7.15682 11.2258 7.2312 11.2258C7.30558 11.2258 7.37795 11.2473 7.43745 11.2871L8.52026 12.0134L9.52058 10.6742ZM5.51245 3.56452V3.25806C5.51245 3.01424 5.6211 2.7804 5.8145 2.60798C6.00789 2.43557 6.2702 2.33871 6.5437 2.33871V2.03226C6.5437 1.95098 6.57992 1.87303 6.64438 1.81556C6.70885 1.75809 6.79628 1.72581 6.88745 1.72581C6.97862 1.72581 7.06605 1.75809 7.13052 1.81556C7.19498 1.87303 7.2312 1.95098 7.2312 2.03226V2.33871C7.50471 2.33871 7.76701 2.43557 7.96041 2.60798C8.1538 2.7804 8.26245 3.01424 8.26245 3.25806C8.26245 3.33934 8.22623 3.41729 8.16177 3.47476C8.0973 3.53223 8.00987 3.56452 7.9187 3.56452C7.82753 3.56452 7.7401 3.53223 7.67563 3.47476C7.61117 3.41729 7.57495 3.33934 7.57495 3.25806C7.57495 3.17679 7.53873 3.09884 7.47427 3.04137C7.4098 2.9839 7.32237 2.95161 7.2312 2.95161V3.87097C7.50471 3.87097 7.76701 3.96783 7.96041 4.14024C8.1538 4.31265 8.26245 4.54649 8.26245 4.79032V5.09677C8.26245 5.3406 8.1538 5.57444 7.96041 5.74686C7.76701 5.91927 7.50471 6.01613 7.2312 6.01613V6.32258C7.2312 6.40386 7.19498 6.4818 7.13052 6.53928C7.06605 6.59675 6.97862 6.62903 6.88745 6.62903C6.79628 6.62903 6.70885 6.59675 6.64438 6.53928C6.57992 6.4818 6.5437 6.40386 6.5437 6.32258V6.01613C6.2702 6.01613 6.00789 5.91927 5.8145 5.74686C5.6211 5.57444 5.51245 5.3406 5.51245 5.09677C5.51245 5.0155 5.54867 4.93755 5.61313 4.88008C5.6776 4.82261 5.76503 4.79032 5.8562 4.79032C5.94737 4.79032 6.0348 4.82261 6.09927 4.88008C6.16373 4.93755 6.19995 5.0155 6.19995 5.09677C6.19995 5.17805 6.23617 5.256 6.30063 5.31347C6.3651 5.37094 6.45253 5.40323 6.5437 5.40323V4.48387C6.2702 4.48387 6.00789 4.38701 5.8145 4.2146C5.6211 4.04219 5.51245 3.80834 5.51245 3.56452ZM17.8875 17.6613H5.51245C5.42128 17.6613 5.33385 17.629 5.26938 17.5715C5.20492 17.5141 5.1687 17.4361 5.1687 17.3548C5.1687 17.2736 5.20492 17.1956 5.26938 17.1381C5.33385 17.0807 5.42128 17.0484 5.51245 17.0484H5.8562V13.6774C5.8562 13.5961 5.89242 13.5182 5.95688 13.4607C6.02135 13.4033 6.10878 13.371 6.19995 13.371H8.26245C8.35362 13.371 8.44105 13.4033 8.50552 13.4607C8.56998 13.5182 8.6062 13.5961 8.6062 13.6774V17.0484H10.325V12.4516C10.325 12.3703 10.3612 12.2924 10.4256 12.2349C10.4901 12.1774 10.5775 12.1452 10.6687 12.1452H12.7312C12.8224 12.1452 12.9098 12.1774 12.9743 12.2349C13.0387 12.2924 13.075 12.3703 13.075 12.4516V17.0484H14.7937V11.2258C14.7937 11.1445 14.8299 11.0666 14.8944 11.0091C14.9588 10.9516 15.0463 10.9194 15.1375 10.9194H17.2C17.2911 10.9194 17.3786 10.9516 17.443 11.0091C17.5075 11.0666 17.5437 11.1445 17.5437 11.2258V17.0484H17.8875C17.9786 17.0484 18.0661 17.0807 18.1305 17.1381C18.195 17.1956 18.2312 17.2736 18.2312 17.3548C18.2312 17.4361 18.195 17.5141 18.1305 17.5715C18.0661 17.629 17.9786 17.6613 17.8875 17.6613Z" fill="#8B909A"/>
</svg>
