<svg width="22" height="22" viewBox="0 0 22 22" fill="none" xmlns="http://www.w3.org/2000/svg">
<path fill-rule="evenodd" clip-rule="evenodd" d="M0.660525 2.65813C0.446492 2.39031 0.446492 2.00974 0.660525 1.74191L1.83262 0.275249C2.08536 -0.0410079 2.54634 -0.0922835 2.86227 0.160723C3.1782 0.413731 3.22942 0.875212 2.97668 1.19146L2.75673 1.46669H5.13953C5.5441 1.46669 5.87209 1.79502 5.87209 2.20002C5.87209 2.60503 5.5441 2.93335 5.13953 2.93335H2.75673L2.97668 3.20858C3.22942 3.52484 3.1782 3.98632 2.86227 4.23932C2.54635 4.49233 2.08536 4.44105 1.83262 4.12479L0.660525 2.65813ZM21.3395 20.2581C21.5535 19.9903 21.5535 19.6097 21.3395 19.3419L20.1674 17.8753C19.9146 17.559 19.4536 17.5077 19.1377 17.7607C18.8217 18.0137 18.7706 18.4751 19.0233 18.7914L19.2432 19.0667H16.8604C16.4559 19.0667 16.1279 19.395 16.1279 19.8C16.1279 20.205 16.4559 20.5333 16.8604 20.5333H19.2432L19.0233 20.8086C18.7706 21.1248 18.8217 21.5863 19.1377 21.8393C19.4536 22.0923 19.9146 22.041 20.1674 21.7248L21.3395 20.2581ZM11 3.91116C7.08905 3.91116 3.9186 7.08496 3.9186 11C3.9186 14.9151 7.08905 18.0889 11 18.0889C14.911 18.0889 18.0814 14.9151 18.0814 11C18.0814 7.08496 14.911 3.91116 11 3.91116ZM2.45348 11C2.45348 6.27494 6.27988 2.44449 11 2.44449C15.7201 2.44449 19.5465 6.27494 19.5465 11C19.5465 15.7251 15.7201 19.5556 11 19.5556C6.27988 19.5556 2.45348 15.7251 2.45348 11Z" fill="#8B909A"/>
</svg>
