<svg width="6" height="12" viewBox="0 0 6 12" fill="none" xmlns="http://www.w3.org/2000/svg">
<path fill-rule="evenodd" clip-rule="evenodd" d="M3.00003 0C3.39451 0 3.71431 0.322349 3.71431 0.720001V1.44H4.90479C5.29927 1.44 5.61908 1.76235 5.61908 2.16C5.61908 2.55765 5.29927 2.88 4.90479 2.88H3.00003C2.34251 2.88 1.80955 3.41726 1.80955 4.07999V5.27999H4.90479C5.29927 5.27999 5.61908 5.60236 5.61908 5.99999V7.91999C5.61908 9.12844 4.81365 10.1472 3.71431 10.4606V11.28C3.71431 11.6776 3.39451 12 3.00003 12C2.60555 12 2.28574 11.6776 2.28574 11.28V10.56H1.09527C0.700781 10.56 0.380981 10.2376 0.380981 9.84C0.380981 9.44236 0.700781 9.12 1.09527 9.12H3.00003C3.65755 9.12 4.19051 8.58278 4.19051 7.91999V6.71999H1.09527C0.700781 6.71999 0.380981 6.39762 0.380981 5.99999V4.07999C0.380981 2.87158 1.18641 1.85278 2.28574 1.53937V0.720001C2.28574 0.322349 2.60555 0 3.00003 0Z" fill="#8B909A"/>
</svg>
