<svg width="22" height="22" viewBox="0 0 22 22" fill="none" xmlns="http://www.w3.org/2000/svg">
<path d="M21.56 20.9573H20.108V3.90995C20.812 3.70142 21.34 2.91943 21.34 1.98104C21.34 0.886257 20.592 0 19.668 0C18.744 0 17.996 0.886257 17.996 1.98104C17.996 2.34597 18.084 2.65877 18.216 2.97156L10.956 11.6256C10.648 11.2085 10.208 10.9479 9.724 10.9479C9.46 10.9479 9.196 11.0521 8.976 11.1564L7.964 9.95735C8.052 9.74882 8.052 9.48815 8.052 9.27962C8.052 8.18484 7.304 7.29858 6.38 7.29858C5.456 7.29858 4.708 8.18484 4.708 9.27962C4.708 9.69668 4.796 10.0616 4.972 10.3744L1.188 14.91C1.012 15.1185 1.012 15.4313 1.188 15.6398C1.276 15.7441 1.408 15.7962 1.496 15.7962C1.584 15.7962 1.716 15.7441 1.804 15.6398L2.64 14.6493V20.9573H0.44C0.176 20.9573 0 21.1659 0 21.4787C0 21.7915 0.176 22 0.44 22H21.56C21.824 22 22 21.7915 22 21.4787C22 21.1659 21.824 20.9573 21.56 20.9573ZM16.764 6.15166L18.832 3.70142C18.964 3.80569 19.096 3.85782 19.228 3.90995V20.9573H16.808V6.15166H16.764ZM15.884 20.9573H13.464V10.1137L15.884 7.24645V20.9573ZM12.584 11.1564V20.9573H10.164V14.8057C10.868 14.5972 11.396 13.8152 11.396 12.8768C11.396 12.7725 11.396 12.6682 11.352 12.564L12.584 11.1564ZM6.82 11.2085C7.04 11.1564 7.26 11 7.436 10.8436L8.316 11.8863C8.14 12.1991 8.052 12.564 8.052 12.981C8.052 13.9194 8.58 14.6493 9.284 14.91V21.0095H6.864V11.2085H6.82ZM3.52 13.6066L5.676 11.0521C5.764 11.1043 5.852 11.1564 5.984 11.1564V20.9052H3.52V13.6066Z" fill="#8B909A"/>
</svg>
