<svg width="18" height="18" viewBox="0 0 18 18" fill="none" xmlns="http://www.w3.org/2000/svg">
<path d="M17.4 0H0.6C0.44087 0 0.288258 0.0632141 0.175736 0.175736C0.0632141 0.288258 0 0.44087 0 0.6V3.6C0 3.75913 0.0632141 3.91174 0.175736 4.02426C0.288258 4.13679 0.44087 4.2 0.6 4.2H3.6V17.4C3.6 17.5591 3.66321 17.7117 3.77574 17.8243C3.88826 17.9368 4.04087 18 4.2 18H13.8C13.9591 18 14.1117 17.9368 14.2243 17.8243C14.3368 17.7117 14.4 17.5591 14.4 17.4V4.2H17.4C17.5591 4.2 17.7117 4.13679 17.8243 4.02426C17.9368 3.91174 18 3.75913 18 3.6V0.6C18 0.44087 17.9368 0.288258 17.8243 0.175736C17.7117 0.0632141 17.5591 0 17.4 0ZM1.2 3V1.2H3.6V3H1.2ZM13.2 16.8H4.8V1.2H13.2V16.8ZM16.8 3H14.4V1.2H16.8V3Z" fill="#8B909A"/>
</svg>
