<svg width="7" height="16" viewBox="0 0 7 16" fill="none" xmlns="http://www.w3.org/2000/svg">
<path d="M1.06671 10.6667C0.872215 10.6667 0.685689 10.7439 0.548163 10.8815C0.410636 11.019 0.333374 11.2055 0.333374 11.4V14.3333C0.333374 14.5278 0.410636 14.7144 0.548163 14.8519C0.685689 14.9894 0.872215 15.0667 1.06671 15.0667C1.2612 15.0667 1.44773 14.9894 1.58525 14.8519C1.72278 14.7144 1.80004 14.5278 1.80004 14.3333V11.4C1.80004 11.2055 1.72278 11.019 1.58525 10.8815C1.44773 10.7439 1.2612 10.6667 1.06671 10.6667ZM4.58092 4.08771C3.64907 3.74305 3.26539 3.51652 3.26539 3.16086C3.26539 2.85828 3.49558 2.55637 4.20831 2.55637C4.57732 2.5547 4.94415 2.61302 5.29445 2.72907C5.35747 2.75116 5.42438 2.76002 5.49098 2.7551C5.55759 2.75017 5.62246 2.73156 5.68155 2.70043C5.74064 2.66931 5.79267 2.62633 5.8344 2.57419C5.87614 2.52204 5.90667 2.46185 5.92409 2.39738L5.9961 2.12084C6.02724 1.99834 6.00964 1.86854 5.94701 1.75875C5.88438 1.64896 5.7816 1.56774 5.66031 1.53219C5.42393 1.46077 5.18162 1.41073 4.93629 1.38267C4.81994 1.36789 4.71298 1.31118 4.63546 1.22317C4.55794 1.13515 4.51518 1.02189 4.51521 0.904608V0.884001C4.51521 0.755637 4.46421 0.632529 4.37345 0.541762C4.28268 0.450994 4.15957 0.400002 4.03121 0.400002H3.92465C3.86109 0.400002 3.79816 0.412521 3.73944 0.436844C3.68071 0.461167 3.62736 0.496818 3.58241 0.541762C3.53747 0.586705 3.50182 0.640061 3.4775 0.698783C3.45317 0.757504 3.44065 0.820442 3.44065 0.884001V1.0248C3.44303 1.13058 3.41166 1.23436 3.35109 1.32111C3.29051 1.40786 3.20388 1.47306 3.10376 1.50726C2.68119 1.59793 2.30162 1.82862 2.02653 2.16195C1.75144 2.49528 1.59696 2.91173 1.58811 3.34382C1.58811 4.38963 2.38825 4.92892 3.56129 5.31722C4.37279 5.58716 4.72333 5.84618 4.72333 6.25589C4.72333 6.68767 4.29579 6.92432 3.67085 6.92432C3.22223 6.92091 2.77779 6.83791 2.35818 6.67917C2.2943 6.65375 2.22577 6.64211 2.15707 6.64502C2.08838 6.64793 2.02108 6.66532 1.95957 6.69606C1.89807 6.72679 1.84376 6.77017 1.80019 6.82336C1.75662 6.87655 1.72478 6.93834 1.70676 7.00469L1.62521 7.31768C1.59398 7.43146 1.60591 7.55277 1.6587 7.65829C1.71149 7.76381 1.80143 7.84609 1.91121 7.88932C2.25212 8.01225 2.60583 8.09626 2.9656 8.13975C3.08182 8.15456 3.18865 8.21127 3.26605 8.29923C3.34345 8.38718 3.3861 8.50035 3.38602 8.61751V8.716C3.38602 8.84437 3.43701 8.96747 3.52778 9.05824C3.61855 9.14901 3.74166 9.2 3.87002 9.2H3.9765C4.10487 9.2 4.22797 9.14901 4.31874 9.05824C4.40951 8.96747 4.4605 8.84437 4.4605 8.716V8.48383C4.45927 8.381 4.49151 8.28056 4.55236 8.19766C4.61321 8.11476 4.69937 8.05389 4.79783 8.02425C5.24528 7.93593 5.64919 7.69754 5.94274 7.34848C6.23629 6.99943 6.40191 6.56064 6.4122 6.10468C6.41198 5.13418 5.8853 4.54128 4.58092 4.08771Z" fill="#8B909A"/>
</svg>
